<svg xmlns="http://www.w3.org/2000/svg" version="1.1" viewBox="0 0 1536 436">
<path d="M0,0 L1536,0 L1536,436 L0,436 Z " fill="#FDFDFD" transform="translate(0,0)"/>
<path d="M0,0 L291,0 L292,74 L319,101 L320,66 L325,61 L326,60 L493,60 L498,64 L500,67 L501,81 L511,73 L526,65 L536,62 L551,59 L577,59 L598,64 L610,69 L622,76 L632,85 L639,92 L648,106 L653,120 L655,136 L655,153 L650,172 L641,188 L632,199 L618,210 L604,217 L592,221 L582,223 L572,224 L556,224 L540,222 L523,217 L505,207 L495,199 L481,185 L473,178 L467,172 L466,215 L462,220 L458,222 L348,222 L343,220 L327,205 L319,198 L302,182 L293,174 L293,172 L291,172 L291,255 L286,263 L278,267 L14,267 L6,263 L1,255 L0,252 L0,179 L-17,179 L-17,215 L-21,220 L-25,222 L-71,222 L-77,217 L-78,215 L-78,65 L-72,60 L0,60 Z " fill="#0E5890" transform="translate(480,132)"/>
<path d="M0,0 L20,0 L35,3 L47,7 L62,16 L73,25 L81,34 L89,47 L93,57 L95,62 L97,73 L97,91 L94,106 L87,122 L79,134 L72,142 L59,152 L42,161 L27,165 L-3,165 L-18,162 L-28,158 L-41,150 L-51,141 L-58,134 L-65,124 L-73,105 L-76,90 L-76,76 L-74,62 L-69,48 L-60,33 L-51,23 L-35,11 L-23,5 L-14,2 Z " fill="#0D5891" transform="translate(610,194)"/>
<path d="M0,0 L11,0 L28,3 L43,8 L54,14 L65,23 L73,32 L80,44 L84,57 L85,61 L85,81 L83,91 L78,104 L71,116 L59,128 L45,136 L30,142 L16,144 L-9,144 L-23,141 L-35,136 L-45,130 L-55,121 L-62,113 L-67,105 L-72,92 L-74,81 L-74,62 L-71,50 L-64,36 L-56,26 L-48,18 L-34,9 L-22,4 L-10,1 Z " fill="#FBFBFC" transform="translate(1039,198)"/>
<path d="M0,0 L39,0 L39,140 L18,140 L18,138 L14,136 L2,124 L-6,117 L-14,109 L-22,102 L-32,92 L-40,85 L-53,72 L-54,140 L-92,140 L-92,1 L-73,1 L-51,23 L-43,30 L-29,44 L-21,51 L-13,59 L-5,66 L-1,70 Z " fill="#FAFBFC" transform="translate(812,200)"/>
<path d="M0,0 L66,0 L78,3 L90,8 L100,16 L107,26 L111,37 L112,40 L112,57 L108,70 L102,79 L94,87 L81,94 L67,97 L38,97 L38,140 L0,140 Z " fill="#FBFCFD" transform="translate(413,200)"/>
<path d="M0,0 L20,0 L35,3 L47,7 L62,16 L73,25 L81,34 L89,47 L93,57 L95,62 L97,73 L97,91 L94,106 L87,122 L79,134 L72,142 L59,152 L42,161 L27,165 L-3,165 L-18,162 L-28,158 L-41,150 L-51,141 L-58,134 L-65,124 L-73,105 L-76,90 L-76,76 L-74,62 L-69,48 L-60,33 L-51,23 L-35,11 L-23,5 L-14,2 Z M0,18 L-11,20 L-23,25 L-33,32 L-40,38 L-47,47 L-53,57 L-56,66 L-57,71 L-57,95 L-51,112 L-43,124 L-34,133 L-24,140 L-11,146 L-3,148 L20,148 L30,146 L45,140 L56,132 L66,122 L73,110 L77,99 L78,92 L79,91 L79,75 L76,62 L68,47 L59,37 L51,30 L35,22 L20,18 Z " fill="#F8FAFB" transform="translate(610,194)"/>
<path d="M0,0 L107,0 L107,34 L72,34 L72,140 L34,140 L34,33 L0,33 Z " fill="#F9FBFC" transform="translate(861,200)"/>
<path d="M0,0 L268,0 L275,3 L280,9 L280,25 L-11,25 L-11,12 L-8,6 L-3,1 Z " fill="#0E5992" transform="translate(491,99)"/>
<path d="M0,0 L4,0 L7,10 L7,24 L2,41 L-4,51 L-13,61 L-24,68 L-38,73 L-43,74 L-63,74 L-79,69 L-89,63 L-96,57 L-105,44 L-110,31 L-111,25 L-111,15 L-100,17 L-80,23 L-71,26 L-52,26 L-39,22 L-24,12 L-5,2 Z " fill="#FBFCFC" transform="translate(673,260)"/>
<path d="M0,0 L21,0 L32,4 L41,10 L47,17 L51,24 L53,34 L53,43 L49,56 L41,67 L31,73 L24,76 L19,77 L4,77 L-9,73 L-18,67 L-26,56 L-29,48 L-29,28 L-23,16 L-17,9 L-10,4 Z " fill="#0C568F" transform="translate(1033,232)"/>
<path d="M0,0 L2,0 L6,20 L14,38 L22,49 L31,59 L42,68 L54,75 L71,81 L83,83 L108,83 L124,80 L140,74 L151,68 L160,61 L167,55 L176,44 L182,34 L184,33 L184,44 L175,56 L165,66 L151,76 L136,83 L125,87 L109,90 L82,90 L68,87 L52,81 L41,75 L27,64 L20,57 L9,42 L1,25 L-4,9 L-3,4 Z " fill="#EDF2F6" transform="translate(524,284)"/>
<path d="M0,0 L16,0 L35,3 L45,6 L61,14 L73,22 L86,34 L96,45 L96,58 L92,54 L83,41 L72,30 L59,21 L44,14 L27,9 L20,8 L-2,8 L-19,11 L-33,16 L-47,24 L-58,34 L-63,39 L-71,49 L-77,60 L-79,57 L-80,51 L-71,38 L-59,25 L-47,16 L-36,10 L-27,6 L-14,2 Z " fill="#EFF3F6" transform="translate(611,178)"/>
<path d="M0,0 L20,0 L31,4 L36,11 L36,21 L31,29 L23,33 L0,33 Z " fill="#115A92" transform="translate(451,232)"/>
<path d="M0,0 L7,1 L12,5 L12,12 L7,17 L0,18 L-6,12 L-6,6 L-1,1 Z " fill="#F4F7F9" transform="translate(744,143)"/>
<path d="M0,0 L6,0 L12,5 L12,12 L8,17 L1,18 L-5,13 L-5,5 Z " fill="#F0F4F7" transform="translate(699,143)"/>
<path d="M0,0 L7,1 L11,5 L11,13 L5,18 L-2,17 L-6,12 L-6,5 Z " fill="#F5F8FA" transform="translate(722,143)"/>
<path d="M0,0 L2,1 L-13,16 L-15,15 L-6,5 Z " fill="#D7E4EE" transform="translate(565,212)"/>
<path d="M0,0 L2,1 L-12,15 L-14,14 L-9,8 L-1,1 Z " fill="#2569A0" transform="translate(560,204)"/>
<path d="M0,0 L2,1 L-9,12 L-9,9 L-4,3 Z " fill="#2C6C9E" transform="translate(1020,238)"/>
<path d="M0,0 L5,0 L1,2 L-4,7 L-5,12 L-6,12 L-6,6 L-1,1 Z " fill="#B2CADB" transform="translate(744,143)"/>
<path d="M0,0 L2,2 L-4,8 L-6,7 Z " fill="#25669D" transform="translate(573,229)"/>
</svg>