<?xml version="1.0" encoding="UTF-8"?>
<svg version="1.1" xmlns="http://www.w3.org/2000/svg" width="1537" height="367">
<path d="M0,0 L1537,0 L1537,367 L0,367 Z " fill="#FDFDFD" transform="translate(0,0)"/>
<path d="M0,0 L56,0 L54,5 L44,23 L31,46 L19,67 L6,90 L-7,113 L-19,134 L-31,155 L-45,180 L-61,208 L-71,226 L-84,249 L-100,277 L-104,284 L-141,284 L-145,275 L-160,246 L-172,224 L-190,189 L-202,167 L-218,136 L-230,114 L-239,97 L-239,95 L-179,95 L-165,120 L-157,133 L-147,151 L-138,166 L-129,182 L-122,193 L-112,177 L-100,158 L-85,134 L-71,112 L-59,93 L-46,72 L-34,53 L-19,29 L-5,7 Z " fill="#0B558D" transform="translate(1104,31)"/>
<path d="M0,0 L83,0 L108,6 L116,10 L127,17 L137,27 L145,43 L147,53 L147,67 L143,83 L135,96 L125,106 L116,112 L111,114 L120,126 L130,139 L140,152 L150,165 L157,174 L166,186 L167,189 L103,189 L89,167 L74,145 L60,125 L54,117 L53,189 L0,189 Z " fill="#0B558E" transform="translate(725,126)"/>
<path d="M0,0 L123,0 L123,44 L52,44 L52,72 L112,72 L112,115 L52,115 L52,143 L125,143 L125,188 L0,188 Z " fill="#0D568D" transform="translate(578,127)"/>
<path d="M0,0 L19,0 L32,2 L55,10 L55,12 L60,14 L70,22 L74,26 L72,30 L50,52 L46,57 L42,56 L32,49 L21,45 L5,45 L-1,48 L-4,52 L-4,58 L0,64 L8,69 L20,73 L35,80 L44,84 L55,90 L64,97 L71,104 L77,114 L80,124 L80,143 L77,156 L70,168 L61,178 L50,185 L40,190 L27,193 L13,195 L-1,195 L-22,192 L-38,186 L-48,180 L-60,169 L-64,164 L-63,159 L-49,145 L-42,137 L-36,131 L-33,131 L-28,137 L-19,143 L-8,148 L-1,149 L15,149 L23,145 L25,145 L27,139 L26,130 L20,125 L4,117 L-16,110 L-28,104 L-37,97 L-47,87 L-55,72 L-56,66 L-56,46 L-53,35 L-46,24 L-37,15 L-25,7 L-18,5 Z " fill="#0C558E" transform="translate(478,123)"/>
<path d="M0,0 L27,0 L37,6 L41,12 L41,23 L36,32 L29,37 L26,38 L0,38 Z " fill="#F9FAFB" transform="translate(778,170)"/>
<path d="M0,0 L83,0 L88,1 L88,2 L2,2 L2,188 L51,188 L51,114 L54,114 L53,189 L0,189 Z " fill="#5184AB" transform="translate(725,126)"/>
<path d="M0,0 L3,0 L2,75 L-50,75 L-50,74 L0,74 Z " fill="#4D83AA" transform="translate(776,240)"/>
<path d="M0,0 L60,0 L61,4 L59,3 L3,3 L1,4 Z " fill="#4D80AA" transform="translate(865,126)"/>
</svg>
